<?xml version="1.0" encoding="utf-8"?>
<!-- Generator: Adobe Illustrator 20.1.0, SVG Export Plug-In . SVG Version: 6.00 Build 0)  -->
<svg version="1.1" id="Calque_1" xmlns="http://www.w3.org/2000/svg" xmlns:xlink="http://www.w3.org/1999/xlink" x="0px" y="0px"
	 viewBox="0 0 162 162" style="enable-background:new 0 0 162 162;" xml:space="preserve">
<style type="text/css">
	.st0{fill:#FFFFFF;}
</style>
<title>logo2</title>
<path class="st0" d="M145.1,114.6c-0.3-0.6-0.7-1.6-1.3-2.9c-0.5-1.3-1.1-2.7-1.8-4.4l-2.2-5.4c-0.8-1.9-1.6-4-2.5-6.1h-23.1
	l-7.8,18.7h-9.7l29.1-68.4c0.4,0.8,1,2.4,1.9,4.6l3.3,8c1.3,3.1,2.7,6.5,4.3,10.3s3.2,7.6,4.8,11.4c1.7,3.9,3.3,7.7,4.8,11.4
	c1.6,3.7,3,7.1,4.4,10.3l3.4,8l0.5,1.2c17.1-39.9-1.5-86-41.3-103.1S26,9.6,9,49.5h7.1c1.4,4,2.9,8,4.5,12s3,7.9,4.3,11.6
	c1.4,3.7,2.6,7.2,3.7,10.4c1.1,3.2,1.9,5.9,2.5,8.1l0.7,3.2c0.1-0.5,0.3-1,0.4-1.5c0.2-0.7,0.4-1.2,0.5-1.5c0.2-0.6,0.4-1.1,0.6-1.6
	c0.4-0.8,0.8-1.8,1.3-3s1-2.5,1.6-3.9s1.2-2.8,1.8-4.2c1.4-3.3,3-7,4.8-11c-1-2.8-1.9-5.5-2.7-7.9c-0.7-2.1-1.4-4.2-2-6.2
	s-1.1-3.5-1.4-4.4h9.5c2.6,6.8,5,13.1,7.2,18.8c0.9,2.5,1.8,4.9,2.8,7.4c0.9,2.5,1.8,4.8,2.6,6.9s1.5,4,2.1,5.5
	c0.6,1.6,1,2.7,1.3,3.5c0.2,0.5,0.3,1,0.4,1.6c0.1,0.5,0.2,1,0.3,1.6c0.1-0.5,0.2-1.1,0.3-1.6s0.2-1,0.3-1.5
	c0.7-2.8,1.5-5.6,2.5-8.4c1.1-3.2,2.4-6.7,3.9-10.5c1.4-3.7,2.9-7.6,4.5-11.6s3.1-7.9,4.5-11.6h10.3c-2.2,5.7-4.5,11.7-6.9,18
	c-2.5,6-4.9,12.2-7.3,18.3s-4.6,11.8-6.7,17.3s-3.9,10.2-5.3,14.2L48.4,81c-0.2-0.5-0.3-0.8-0.4-1.1c-0.2-0.3-0.3-0.7-0.4-1.1
	c0,0.2,0,0.5-0.1,0.7s-0.1,0.4-0.2,0.7l-0.2,0.7c-2,4.7-4.1,9.3-6,13.8l-2.6,6c-0.9,2-1.8,4.1-2.6,6.1s-1.7,4-2.5,5.8l-2.2,5.1
	c-4.3-11.4-8.7-22.7-13.1-34C14.4,74,10.7,64.4,7,54.7c-14.7,40.8,6.6,85.8,47.4,100.4c38.1,13.7,80.4-3.9,97.6-40.5
	C152,114.6,145.1,114.6,145.1,114.6z M88.3,113.3c-0.9,0.9-2.2,1.3-3.4,1.3c-1.3,0-2.6-0.5-3.6-1.3c-1.1-0.9-1.6-2.3-1.6-3.7
	c0-1.4,0.6-2.7,1.6-3.7c0.9-0.9,2.2-1.5,3.6-1.5c2.7,0.1,4.9,2.4,5,5.1C89.9,111,89.4,112.3,88.3,113.3L88.3,113.3z"/>
<path class="st0" d="M129.3,72.5c-0.5-1.2-0.9-2.1-1.1-2.8c-0.2-0.4-0.3-0.9-0.4-1.3c-0.2-0.7-0.4-1.4-0.5-2c-0.1,0.7-0.3,1.3-0.6,2
	c-0.2,0.7-0.4,1.2-0.5,1.3l-7.4,18h16.8c-0.9-2-1.7-4-2.5-5.9l-2.2-5.1C130.4,75.1,129.8,73.7,129.3,72.5z"/>
</svg>
